# xmcd
#
# Track frame offsets:
#        150
#        12005
#        32239
#        46719
#        64568
#        76360
#        89486
#        101741
#        120301
#        133264
#        145381
#        160235
#        176988
#        193786
#        210395
#        219427
#        247729
#        271222
#        285728
#        309032
#        329414
#
# Disc length: 4718 seconds
#
# Revision: 1
# Processed by: cddbd v1.5.2PL0 Copyright (c) Steve Scherf et al.
# Submitted via: jack 3.1.1
#
DISCID=25126c15
DTITLE=Duster Bennet/ Bright Lights Big City CD1
DYEAR=2002
DGENRE=Blues
TTITLE0=San Francisco Bay Blues
TTITLE1=Beggin' Woman
TTITLE2=Glendora
TTITLE3=You Done Lost Your Good Thing Now
TTITLE4=Georgina
TTITLE5=Blue Inside
TTITLE6=Worried Mind
TTITLE7=Junmpin' At Shadows
TTITLE8=Blues With A Feeling
TTITLE9=Ride With Your Daddy Tonight
TTITLE10=I've Been A Fool
TTITLE11=Love Me Like You Can
TTITLE12=Shady Little Baby
TTITLE13=Sleeping In The Ground
TTITLE14=I'm Going To Wind Up Ending Up Or I'm Gonna End Up Winding Up
TTITLE14=With You
TTITLE15=I'm Thinking About A Woman
TTITLE16=Trying So Hard To Forget
TTITLE17=Life Is What You Make It
TTITLE18=It's A Man Down There (live)
TTITLE19=Further On Up The Road (live)
TTITLE20=Fresh Country Jam (live)
EXTD=
EXTT0=
EXTT1=
EXTT2=
EXTT3=
EXTT4=
EXTT5=
EXTT6=
EXTT7=
EXTT8=
EXTT9=
EXTT10=
EXTT11=
EXTT12=
EXTT13=
EXTT14=
EXTT15=
EXTT16=
EXTT17=
EXTT18=
EXTT19=
EXTT20=
PLAYORDER=
